<?xml version="1.0" encoding="utf-8"?>
<!-- Generator: Adobe Illustrator 21.0.0, SVG Export Plug-In . SVG Version: 6.00 Build 0)  -->
<svg version="1.1" id="图层_1" xmlns="http://www.w3.org/2000/svg" xmlns:xlink="http://www.w3.org/1999/xlink" x="0px" y="0px"
	 viewBox="0 0 500 500" style="enable-background:new 0 0 500 500;" xml:space="preserve">
<style type="text/css">
	.st0{fill:#343844;}
	.st1{fill:#FFFFFF;}
</style>
<circle class="st0" cx="250.5" cy="250.5" r="250"/>
<path class="st1" d="M349.6,193.5H157.4c-3.8,0-6.9-3.3-6.9-7.5s3.1-7.5,6.9-7.5h192.2c3.8,0,6.9,3.3,6.9,7.5
	S353.4,193.5,349.6,193.5z"/>
<path class="st1" d="M310.9,255.5H157.2c-3.7,0-6.8-3.4-6.8-7.5s3-7.5,6.8-7.5h153.6c3.7,0,6.8,3.4,6.8,7.5S314.6,255.5,310.9,255.5
	z"/>
<path class="st1" d="M349.6,317.5H157.4c-3.8,0-6.9-3.3-6.9-7.5s3.1-7.5,6.9-7.5h192.2c3.8,0,6.9,3.3,6.9,7.5
	S353.4,317.5,349.6,317.5z"/>
</svg>
