<?xml version="1.0" encoding="utf-8"?>
<!-- Generator: Adobe Illustrator 21.0.0, SVG Export Plug-In . SVG Version: 6.00 Build 0)  -->
<svg version="1.1" id="图层_1" xmlns="http://www.w3.org/2000/svg" xmlns:xlink="http://www.w3.org/1999/xlink" x="0px" y="0px"
	 viewBox="0 0 500 500" style="enable-background:new 0 0 500 500;" xml:space="preserve">
<style type="text/css">
	.st0{fill:#06BEBE;}
	.st1{fill:#FFFFFF;}
</style>
<circle class="st0" cx="251" cy="250.4" r="250"/>
<path class="st1" d="M264,252c-1.2-1.2-1.2-3.3,0-4.5l66.6-66.2c3.3-3.2,3.3-8.5,0-11.7c-3.2-3.3-8.5-3.3-11.7,0l-67.5,67.1
	c-0.8,0.8-2,0.7-2.7,0l-66.9-67.1c-3.2-3.2-8.5-3.3-11.7,0c-3.2,3.2-3.3,8.5,0,11.7l66,66.2c1.2,1.2,1.2,3.3,0,4.5l-66.5,66.2
	c-3.3,3.2-3.3,8.5,0,11.7c1.6,1.6,3.8,2.4,5.9,2.4c2.1,0,4.2-0.8,5.9-2.4l66.5-66.2c1.2-1.2,3.3-1.2,4.5,0l66.6,66.8
	c1.6,1.6,3.7,2.4,5.9,2.4c2.1,0,4.2-0.8,5.9-2.4c3.2-3.2,3.3-8.5,0-11.7L264,252z"/>
</svg>
