<?xml version="1.0" encoding="utf-8"?>
<!-- Generator: Adobe Illustrator 21.0.0, SVG Export Plug-In . SVG Version: 6.00 Build 0)  -->
<svg version="1.1" id="图层_1" xmlns="http://www.w3.org/2000/svg" xmlns:xlink="http://www.w3.org/1999/xlink" x="0px" y="0px"
	 viewBox="0 0 200 200" style="enable-background:new 0 0 200 200;" xml:space="preserve">
<style type="text/css">
	.st0{fill:#343844;}
	.st1{fill:#FFFFFF;}
</style>
<path class="st0" d="M6.3,100c0,51.8,42,93.8,93.8,93.8s93.8-42,93.8-93.8S151.8,6.3,100,6.3S6.3,48.2,6.3,100z"/>
<path class="st1" d="M136.9,79.1l-3.3,12.5h-12.2l-2.6,12.5h13.4l-3.1,12.5h-13l-5.3,25h-12l5-25H89.4l-5.1,25h-12l5-25H65l2.7-12.5
	h12.3l2.5-12.5H69.4l3-12.5h13.3l4.8-24.9h12.2L98,79.1h14.5l4.9-24.9h12.1l-4.8,24.9H136.9z M109.3,91.6H94.6L92,104.1h14.7
	L109.3,91.6z"/>
</svg>
